<?xml version="1.0" encoding="utf-8"?>
<svg width="16px" height="16px" viewBox="0 0 16 16" version="1.1" xmlns:xlink="http://www.w3.org/1999/xlink" xmlns="http://www.w3.org/2000/svg">
  <g id="Group">
    <path d="M0 0L16 0L16 16L0 16L0 0Z" id="Rectangle" fill="#0C191B" fill-rule="evenodd" stroke="none" />
    <g id="C" transform="translate(3 1)">
      <g id="C" fill="#44FFDA">
        <path d="M8.70996 6.16992L6.30762 6.16992Q6.25488 5.5752 5.87402 5.20898Q5.49316 4.83984 4.80762 4.83984Q3.91113 4.83984 3.43652 5.48145Q2.96484 6.12305 2.96484 7.2627Q2.96484 8.46387 3.44531 9.07324Q3.92578 9.68262 4.79004 9.68262Q5.44043 9.68262 5.82715 9.35742Q6.2168 9.0293 6.30762 8.47266L8.70996 8.4873Q8.66895 9.04395 8.39941 9.61816Q8.12988 10.1895 7.6377 10.6729Q7.14551 11.1562 6.42188 11.4521Q5.69824 11.7451 4.7373 11.7451Q3.53613 11.7451 2.58398 11.2295Q1.63184 10.7139 1.07812 9.71191Q0.527344 8.70996 0.527344 7.2627Q0.527344 5.80371 1.08984 4.80469Q1.65234 3.80566 2.60742 3.29297Q3.5625 2.77734 4.7373 2.77734Q5.83887 2.77734 6.7002 3.17578Q7.56445 3.57129 8.08887 4.33008Q8.61621 5.08887 8.70996 6.16992Z" />
      </g>
    </g>
  </g>
</svg>